<svg xmlns="http://www.w3.org/2000/svg" width="100" height="100" viewBox="0 0 75 75"><style>@media (prefers-color-scheme:dark){path{fill:#fff}}</style><path d="M19.589 5.418q-5.303 0-8.16 2.94-2.77 2.863-2.764 8.911.005 5.325 2.281 8.243h-.022q-5.297 0-8.15 2.94Q0 31.313 0 37.373t2.945 8.994q2.945 2.945 7.908 2.945h.082q-2.265 2.857-2.27 8.325 0 6.054 2.934 8.993 2.95 2.95 7.908 2.95 5.215 0 8.072-2.96.549-.576.987-1.273.461.702 1.031 1.283 2.94 2.945 7.903 2.95 5.215 0 8.078-2.96.45-.467.822-1.015.395.554.856 1.025 2.945 2.95 7.908 2.95 5.21 0 8.062-2.96 2.862-2.935 2.862-8.984 0-5.478-2.424-8.335l.412.01q5.21 0 8.061-2.944Q75 43.428 75 37.374q0-6.06-2.945-8.912-2.94-2.956-7.897-2.95l-.285.01q2.22-2.917 2.215-8.253 0-6.06-2.945-8.911-2.939-2.945-7.897-2.94-5.303 0-8.16 2.94a8 8 0 0 0-.784.96 8 8 0 0 0-.823-.96q-2.934-2.945-7.897-2.94-5.297 0-8.16 2.94a7.7 7.7 0 0 0-.932 1.206 8 8 0 0 0-1.004-1.206q-2.94-2.945-7.897-2.94m-.082 2.26q3.532 0 5.128 2.446 1.595 2.347 1.595 7.145 0 4.711-1.59 7.24-1.52 2.522-5.045 2.516-3.537.006-5.133-2.522-1.602-2.517-1.596-7.24 0-4.792 1.508-7.14 1.596-2.445 5.133-2.445m17.993 0q3.526 0 5.133 2.446 1.59 2.347 1.59 7.145 0 4.711-1.59 7.24-1.514 2.522-5.045 2.516-3.532.006-5.133-2.522-1.596-2.517-1.59-7.24-.006-4.792 1.502-7.14 1.601-2.445 5.133-2.445m17.659 0q3.537 0 5.133 2.446 1.596 2.347 1.596 7.145 0 4.711-1.59 7.24-1.52 2.522-5.046 2.516-3.537.006-5.133-2.522-1.601-2.517-1.596-7.24 0-4.792 1.508-7.14 1.59-2.445 5.133-2.445zm-35.657 6.899a2.74 2.74 0 0 0-1.755.592q-.675.504-.669 2.023-.006 1.503.664 2.1a2.74 2.74 0 0 0 1.77.588l-.01-.011a2.47 2.47 0 0 0 1.678-.576q.762-.592.768-2.1-.006-1.514-.768-2.03a2.47 2.47 0 0 0-1.678-.586m18.004 0a2.74 2.74 0 0 0-1.766.592q-.674.504-.664 2.023-.01 1.503.659 2.1a2.74 2.74 0 0 0 1.765.582 2.47 2.47 0 0 0 1.684-.576q.757-.592.757-2.1 0-1.514-.757-2.03a2.47 2.47 0 0 0-1.684-.586zm17.659 0a2.74 2.74 0 0 0-1.766.592q-.674.504-.674 2.023 0 1.503.674 2.1a2.74 2.74 0 0 0 1.771.588v-.006a2.47 2.47 0 0 0 1.679-.576q.756-.592.762-2.1 0-1.514-.762-2.03a2.47 2.47 0 0 0-1.679-.586zm-44.317 13.21q3.526 0 5.122 2.43 1.607 2.358 1.607 7.146 0 4.716-1.607 7.239-1.514 2.522-5.045 2.522-3.532 0-5.117-2.522-1.607-2.523-1.607-7.228 0-4.799 1.508-7.157 1.607-2.44 5.144-2.435zm17.911 0q3.532 0 5.133 2.43 1.59 2.358 1.59 7.146 0 4.716-1.59 7.239-1.514 2.522-5.045 2.522-3.537 0-5.144-2.522-1.59-2.523-1.585-7.228 0-4.799 1.513-7.157 1.59-2.44 5.128-2.435zm17.653 0q3.526 0 5.133 2.43 1.59 2.358 1.59 7.146 0 4.716-1.59 7.239-1.514 2.522-5.045 2.522-3.532 0-5.133-2.522-1.602-2.523-1.59-7.228 0-4.799 1.513-7.157 1.59-2.44 5.122-2.435zm17.659 0q3.537 0 5.133 2.43 1.596 2.358 1.596 7.146 0 4.716-1.59 7.239-1.52 2.522-5.046 2.522-3.537 0-5.133-2.522-1.596-2.523-1.596-7.228 0-4.799 1.508-7.157 1.59-2.44 5.133-2.435zm-53.212 6.894a2.74 2.74 0 0 0-1.782.581q-.67.505-.658 2.024c.01 1.519.219 1.7.658 2.1a2.74 2.74 0 0 0 1.782.587 2.47 2.47 0 0 0 1.678-.587q.757-.592.751-2.1 0-1.52-.75-2.03a2.47 2.47 0 0 0-1.679-.575m17.905 0a2.74 2.74 0 0 0-1.766.581q-.68.505-.674 2.024c.005 1.519.219 1.7.674 2.1a2.74 2.74 0 0 0 1.766.587 2.47 2.47 0 0 0 1.684-.587q.756-.592.762-2.1 0-1.52-.768-2.03a2.47 2.47 0 0 0-1.678-.575m17.653 0a2.74 2.74 0 0 0-1.755.581q-.68.505-.674 2.024c.005 1.519.219 1.7.674 2.1a2.74 2.74 0 0 0 1.755.587 2.47 2.47 0 0 0 1.684-.587q.756-.592.756-2.1 0-1.52-.756-2.03a2.47 2.47 0 0 0-1.684-.575m17.659 0a2.74 2.74 0 0 0-1.766.581q-.674.505-.674 2.024c0 1.519.219 1.7.674 2.1a2.74 2.74 0 0 0 1.771.587 2.47 2.47 0 0 0 1.679-.587q.756-.592.762-2.1 0-1.52-.762-2.03a2.47 2.47 0 0 0-1.679-.575zm-44.563 13.37q3.532 0 5.128 2.44 1.595 2.348 1.595 7.146 0 4.705-1.59 7.228-1.519 2.523-5.045 2.523-3.537 0-5.133-2.523-1.602-2.517-1.596-7.228 0-4.799 1.508-7.146 1.596-2.44 5.133-2.44m17.993 0q3.532 0 5.133 2.44 1.59 2.348 1.59 7.146 0 4.705-1.59 7.228-1.514 2.523-5.045 2.523t-5.133-2.523q-1.596-2.517-1.59-7.228-.006-4.799 1.502-7.146 1.601-2.44 5.133-2.44m17.659 0q3.537 0 5.133 2.44 1.596 2.348 1.596 7.146 0 4.705-1.59 7.228-1.52 2.523-5.046 2.523-3.537 0-5.133-2.523-1.601-2.517-1.596-7.228 0-4.799 1.508-7.146 1.59-2.44 5.133-2.44zM19.513 54.95a2.74 2.74 0 0 0-1.771.587q-.67.499-.659 2.012-.01 1.508.659 2.1a2.74 2.74 0 0 0 1.771.587 2.47 2.47 0 0 0 1.678-.586q.762-.593.768-2.1c.005-1.509-.263-1.679-.768-2.024a2.47 2.47 0 0 0-1.678-.576m17.993 0a2.74 2.74 0 0 0-1.766.587q-.674.499-.664 2.012-.01 1.508.659 2.1a2.74 2.74 0 0 0 1.765.587 2.47 2.47 0 0 0 1.684-.586q.757-.587.757-2.1c0-1.514-.252-1.679-.757-2.024a2.47 2.47 0 0 0-1.684-.576zm17.659 0a2.74 2.74 0 0 0-1.766.587q-.674.499-.674 2.012 0 1.508.674 2.1a2.74 2.74 0 0 0 1.771.587 2.47 2.47 0 0 0 1.679-.586q.756-.593.762-2.1c.005-1.509-.258-1.679-.762-2.024a2.47 2.47 0 0 0-1.679-.576z"/></svg>