<svg xmlns="http://www.w3.org/2000/svg" width="100" height="100" viewBox="0 0 100 100"><style>@media (prefers-color-scheme:dark){path{fill:#fff}}</style><path stroke-width="1.333" d="M26.119 7.225q-7.07 0-10.88 3.92-3.693 3.818-3.685 11.881.006 7.1 3.041 10.991h-.03q-7.062 0-10.866 3.92Q0 41.752 0 49.832t3.927 11.992q3.926 3.927 10.544 3.927h.109q-3.02 3.81-3.027 11.1 0 8.072 3.912 11.991 3.934 3.933 10.544 3.933 6.954 0 10.763-3.946.732-.768 1.316-1.698.615.936 1.375 1.711 3.92 3.927 10.537 3.933 6.953 0 10.771-3.946.6-.623 1.096-1.354.527.739 1.141 1.367 3.927 3.933 10.544 3.933 6.947 0 10.75-3.946 3.815-3.914 3.815-11.98 0-7.303-3.232-11.112l.55.013q6.946 0 10.748-3.925Q100 57.905 100 49.834q0-8.08-3.927-11.883-3.92-3.942-10.529-3.934l-.38.014q2.96-3.89 2.954-11.004 0-8.08-3.927-11.881-3.919-3.927-10.53-3.92-7.07 0-10.88 3.92a11 11 0 0 0-1.044 1.28 11 11 0 0 0-1.098-1.28q-3.912-3.927-10.529-3.92-7.062 0-10.88 3.92a10.3 10.3 0 0 0-1.242 1.608 10.7 10.7 0 0 0-1.34-1.608q-3.92-3.927-10.528-3.92m-.11 3.013q4.71 0 6.838 3.261 2.127 3.13 2.127 9.527 0 6.281-2.12 9.653-2.027 3.363-6.727 3.355-4.716.008-6.844-3.363-2.136-3.356-2.128-9.653 0-6.39 2.01-9.52 2.129-3.26 6.845-3.26m23.99 0q4.702 0 6.845 3.261 2.12 3.13 2.12 9.527 0 6.281-2.12 9.653-2.02 3.363-6.727 3.355-4.71.008-6.844-3.363-2.128-3.356-2.12-9.653-.008-6.39 2.003-9.52 2.134-3.26 6.844-3.26m23.545 0q4.716 0 6.844 3.261 2.128 3.13 2.128 9.527 0 6.281-2.12 9.653-2.027 3.363-6.728 3.355-4.716.008-6.844-3.363-2.135-3.356-2.128-9.653 0-6.39 2.01-9.52 2.12-3.26 6.844-3.26zm-47.543 9.199a3.65 3.65 0 0 0-2.34.789q-.9.672-.892 2.697-.008 2.004.885 2.8a3.65 3.65 0 0 0 2.36.784l-.013-.014a3.3 3.3 0 0 0 2.237-.768q1.016-.79 1.024-2.8-.008-2.02-1.024-2.707a3.3 3.3 0 0 0-2.237-.781m24.005 0a3.65 3.65 0 0 0-2.355.789q-.899.672-.886 2.697-.013 2.004.88 2.8A3.65 3.65 0 0 0 50 26.5a3.3 3.3 0 0 0 2.246-.768q1.009-.79 1.009-2.8 0-2.018-1.01-2.706A3.3 3.3 0 0 0 50 19.444zm23.545 0a3.65 3.65 0 0 0-2.355.789q-.899.672-.899 2.697 0 2.004.899 2.8a3.65 3.65 0 0 0 2.361.784V26.5a3.3 3.3 0 0 0 2.239-.768q1.008-.79 1.016-2.8 0-2.018-1.016-2.706a3.3 3.3 0 0 0-2.239-.782zM14.464 37.05q4.702 0 6.83 3.24 2.143 3.144 2.143 9.528 0 6.288-2.143 9.652-2.019 3.362-6.727 3.362-4.71 0-6.823-3.362-2.142-3.364-2.142-9.638 0-6.398 2.01-9.542 2.143-3.254 6.86-3.247zm23.882 0q4.709 0 6.844 3.24 2.12 3.144 2.12 9.528 0 6.288-2.12 9.652-2.02 3.362-6.727 3.362-4.716 0-6.859-3.362-2.12-3.364-2.113-9.638 0-6.398 2.017-9.542 2.12-3.254 6.837-3.247zm23.537 0q4.7 0 6.844 3.24 2.12 3.144 2.12 9.528 0 6.288-2.12 9.652-2.02 3.362-6.727 3.362-4.71 0-6.844-3.362-2.136-3.364-2.12-9.638 0-6.398 2.017-9.542 2.12-3.254 6.83-3.247zm23.545 0q4.716 0 6.844 3.24 2.128 3.144 2.128 9.528 0 6.288-2.12 9.652-2.027 3.362-6.728 3.362-4.716 0-6.844-3.362-2.128-3.364-2.128-9.638 0-6.398 2.01-9.542 2.12-3.254 6.844-3.247zm-70.95 9.192a3.65 3.65 0 0 0-2.375.774q-.894.674-.878 2.699c.014 2.025.292 2.267.878 2.8a3.65 3.65 0 0 0 2.376.783 3.3 3.3 0 0 0 2.237-.783q1.01-.79 1.001-2.8 0-2.027-1-2.707a3.3 3.3 0 0 0-2.239-.766m23.873 0a3.65 3.65 0 0 0-2.354.774q-.907.674-.899 2.699c.007 2.025.292 2.267.899 2.8a3.65 3.65 0 0 0 2.354.783 3.3 3.3 0 0 0 2.246-.783q1.008-.79 1.016-2.8 0-2.027-1.024-2.707a3.3 3.3 0 0 0-2.238-.766m23.537 0a3.65 3.65 0 0 0-2.34.774q-.906.674-.898 2.699c.006 2.025.292 2.267.898 2.8a3.65 3.65 0 0 0 2.34.783 3.3 3.3 0 0 0 2.246-.783q1.008-.79 1.008-2.8 0-2.027-1.008-2.707a3.3 3.3 0 0 0-2.246-.766m23.545 0a3.65 3.65 0 0 0-2.354.774q-.899.674-.899 2.699c0 2.025.292 2.267.899 2.8a3.65 3.65 0 0 0 2.361.783 3.3 3.3 0 0 0 2.239-.783q1.008-.79 1.016-2.8 0-2.027-1.016-2.707a3.3 3.3 0 0 0-2.239-.766zM26.016 64.07q4.71 0 6.838 3.253 2.126 3.13 2.126 9.528 0 6.273-2.12 9.637-2.025 3.364-6.726 3.364-4.716 0-6.844-3.364-2.136-3.356-2.128-9.637 0-6.399 2.01-9.528 2.128-3.253 6.844-3.253m23.991 0q4.71 0 6.844 3.253 2.12 3.13 2.12 9.528 0 6.273-2.12 9.637-2.018 3.364-6.726 3.364t-6.844-3.364q-2.128-3.356-2.12-9.637-.008-6.399 2.002-9.528 2.135-3.253 6.844-3.253m23.545 0q4.716 0 6.844 3.253 2.128 3.13 2.128 9.528 0 6.273-2.12 9.637-2.026 3.364-6.728 3.364-4.716 0-6.844-3.364-2.134-3.356-2.128-9.637 0-6.399 2.011-9.528 2.12-3.253 6.844-3.253zm-47.536 9.198a3.65 3.65 0 0 0-2.36.783q-.894.665-.88 2.683-.013 2.01.88 2.8a3.65 3.65 0 0 0 2.36.782 3.3 3.3 0 0 0 2.238-.781q1.016-.79 1.024-2.8c.006-2.012-.351-2.239-1.024-2.699a3.3 3.3 0 0 0-2.238-.768m23.991 0a3.65 3.65 0 0 0-2.354.783q-.899.665-.886 2.683-.013 2.01.879 2.8a3.65 3.65 0 0 0 2.353.782 3.3 3.3 0 0 0 2.246-.781q1.009-.783 1.009-2.8c0-2.019-.336-2.239-1.01-2.699A3.3 3.3 0 0 0 50 73.268zm23.545 0a3.65 3.65 0 0 0-2.354.783q-.899.665-.899 2.683 0 2.01.899 2.8a3.65 3.65 0 0 0 2.361.782 3.3 3.3 0 0 0 2.239-.781q1.008-.79 1.016-2.8c.006-2.012-.344-2.239-1.016-2.699a3.3 3.3 0 0 0-2.239-.768z"/></svg>